# xmcd
#
# Track frame offsets:
#	150
#	15691
#	32021
#	45551
#	58552
#	76323
#	93647
#	105725
#	121698
#	135960
#	153864
#	170210
#	186188
#	199728
#	216598
#	231228
#	245304
#	262170
#
# Disc length: 3716 seconds
#
# Revision: 0
# Processed by: cddbd v1.5.2PL0 Copyright (c) Steve Scherf et al.
# Submitted via: audiograbber 1.83.01
#
DISCID=f60e8212
DTITLE=Various Artists - Moraine  County Gold I Hits
DYEAR=2004
DGENRE=Country
TTITLE0=Judds - Why Not Me
TTITLE1=Jo Dee Messina - Lesson In Leavin'
TTITLE2=Dottie West - Lesson In Leavin 
TTITLE3=Judds - Girl's Night Out
TTITLE4=Alan Jackson - I'll Go On Lovin' You
TTITLE5=Tanya Tucker - Some Kind Of Trouble
TTITLE6=Judds - Rockin' With The Rhythm
TTITLE7=Tim McGraw - For A Little While
TTITLE8=Dixie Chicks - There's Your Trouble
TTITLE9=Jo Dee Messina w/ Tim McGraw - Bring On The Rain
TTITLE10=Judds - I Know Where I'm Goin'
TTITLE11=Ty Herndon - It Must Be Love 
TTITLE12=Judds - Let Me Tell You
TTITLE13=Judds - Dream Chaser
TTITLE14=Pin Monkey - Barbed Wire and Roses
TTITLE15=Wynonna - When Love Starts Talkin'
TTITLE16=Judds - Born To Be Blue
TTITLE17=Judds - Turn It Loose
EXTD=
EXTT0=
EXTT1=
EXTT2=
EXTT3=
EXTT4=
EXTT5=
EXTT6=
EXTT7=
EXTT8=
EXTT9=
EXTT10=
EXTT11=
EXTT12=
EXTT13=
EXTT14=
EXTT15=
EXTT16=
EXTT17=
PLAYORDER=
